<svg width="44" height="42" viewBox="0 0 44 42" fill="none" xmlns="http://www.w3.org/2000/svg">
<path d="M22 27C25.3137 27 28 24.3137 28 21C28 17.6863 25.3137 15 22 15C18.6863 15 16 17.6863 16 21C16 24.3137 18.6863 27 22 27Z" stroke="white" stroke-width="3" stroke-miterlimit="10" stroke-linecap="round" stroke-linejoin="round"/>
<path d="M2 22.7601V19.2401C2 17.1601 3.7 15.4401 5.8 15.4401C9.42 15.4401 10.9 12.8801 9.08 9.74012C8.04 7.94012 8.66 5.60012 10.48 4.56012L13.94 2.58012C15.52 1.64012 17.56 2.20012 18.5 3.78012L18.72 4.16012C20.52 7.30012 23.48 7.30012 25.3 4.16012L25.52 3.78012C26.46 2.20012 28.5 1.64012 30.08 2.58012L33.54 4.56012C35.36 5.60012 35.98 7.94012 34.94 9.74012C33.12 12.8801 34.6 15.4401 38.22 15.4401C40.3 15.4401 42.02 17.1401 42.02 19.2401V22.7601C42.02 24.8401 40.32 26.5601 38.22 26.5601C34.6 26.5601 33.12 29.1201 34.94 32.2601C35.98 34.0801 35.36 36.4001 33.54 37.4401L30.08 39.4201C28.5 40.3601 26.46 39.8001 25.52 38.2201L25.3 37.8401C23.5 34.7001 20.54 34.7001 18.72 37.8401L18.5 38.2201C17.56 39.8001 15.52 40.3601 13.94 39.4201L10.48 37.4401C8.66 36.4001 8.04 34.0601 9.08 32.2601C10.9 29.1201 9.42 26.5601 5.8 26.5601C3.7 26.5601 2 24.8401 2 22.7601Z" stroke="white" stroke-width="3" stroke-miterlimit="10" stroke-linecap="round" stroke-linejoin="round"/>
</svg>
