<svg width="39" height="46" viewBox="0 0 39 46" fill="none" xmlns="http://www.w3.org/2000/svg">
<path d="M18.0619 0.47585C18.4778 0.166838 18.982 0 19.5 0C20.018 0 20.5222 0.166838 20.9381 0.47585C23.9119 2.6231 30.4688 9.23567 30.4688 25.1937C30.4688 30.4642 28.5675 36.8084 27.1538 40.6881C26.8125 41.6397 25.9106 42.2741 24.8869 42.2741H14.1375C13.1138 42.2741 12.1875 41.6397 11.8462 40.6881C10.4325 36.8084 8.53125 30.4642 8.53125 25.1937C8.53125 9.23567 15.0881 2.6231 18.0619 0.47585ZM24.375 20.3135C24.375 17.6295 22.1812 15.4334 19.5 15.4334C16.8188 15.4334 14.625 17.6295 14.625 20.3135C14.625 22.9976 16.8188 25.1937 19.5 25.1937C22.1812 25.1937 24.375 22.9976 24.375 20.3135ZM8.99438 43.5429C7.82438 40.5417 5.28937 33.3679 4.92375 26.7797L2.16937 28.6098C0.804375 29.537 0 31.0498 0 32.6847V43.5429C0 45.2754 1.73062 46.4466 3.33937 45.8122L8.99438 43.5429ZM39 43.5429V32.6847C39 31.0498 38.1956 29.537 36.8306 28.6342L34.0762 26.8041C33.7106 33.3679 31.1512 40.5661 30.0056 43.5673L35.6606 45.8366C37.2694 46.4466 39 45.2754 39 43.5429Z" fill="#362462"/>
</svg>
