<svg width="60" height="60" viewBox="0 0 60 60" fill="none" xmlns="http://www.w3.org/2000/svg">
<path fill-rule="evenodd" clip-rule="evenodd" d="M38.4805 17.3078H21.2928L22.7582 27.5032C25.5782 33.5562 34.1952 33.5562 37.0152 27.5032L38.4805 17.3078ZM21.2928 12.6924C20.6311 12.6922 19.977 12.8344 19.375 13.1093C18.7731 13.3841 18.2372 13.7852 17.8039 14.2853C17.3705 14.7854 17.0497 15.3729 16.8634 16.0079C16.677 16.6428 16.6293 17.3105 16.7236 17.9655L18.2005 28.2255C18.2575 28.6193 18.3682 28.9978 18.5328 29.3608C22.9752 39.0924 36.7982 39.0924 41.2405 29.3608C41.4052 28.9978 41.5159 28.6193 41.5728 28.2255L43.0498 17.9655C43.1441 17.3105 43.0964 16.6428 42.91 16.0079C42.7236 15.3729 42.4029 14.7854 41.9695 14.2853C41.5362 13.7852 41.0003 13.3841 40.3983 13.1093C39.7964 12.8344 39.1423 12.6922 38.4805 12.6924H21.2928Z" fill="#362462"/>
<path fill-rule="evenodd" clip-rule="evenodd" d="M27.5769 42.6926V35.7695H32.1923V42.6926H27.5769Z" fill="#362462"/>
<path fill-rule="evenodd" clip-rule="evenodd" d="M25.5182 44.9999C26.7052 43.8963 28.2659 43.2828 29.8867 43.2828C31.5074 43.2828 33.0681 43.8963 34.2551 44.9999H25.5182ZM36.849 42.6922C34.9995 40.8522 32.4967 39.8193 29.8878 39.8193C27.2789 39.8193 24.7762 40.8522 22.9266 42.6922L21.0897 44.5176C19.6313 45.9715 20.6582 48.4615 22.719 48.4615H37.0543C39.1151 48.4615 40.142 45.9692 38.6836 44.5176L36.849 42.6922ZM19.4328 19.6153C19.4328 20.2273 19.1897 20.8143 18.7569 21.2471C18.3241 21.6799 17.7371 21.923 17.1251 21.923H12.4866C11.8746 21.923 11.2876 21.6799 10.8549 21.2471C10.4221 20.8143 10.179 20.2273 10.179 19.6153C10.179 19.0033 10.4221 18.4163 10.8549 17.9835C11.2876 17.5507 11.8746 17.3076 12.4866 17.3076H17.1251C17.7371 17.3076 18.3241 17.5507 18.7569 17.9835C19.1897 18.4163 19.4328 19.0033 19.4328 19.6153Z" fill="#362462"/>
<path fill-rule="evenodd" clip-rule="evenodd" d="M12.1566 17.3353C12.7633 17.2482 13.3798 17.4053 13.8708 17.7722C14.3619 18.1391 14.6873 18.6857 14.7758 19.2922L14.9374 20.4207C15.161 21.9557 15.8675 23.3796 16.9546 24.4861C18.0417 25.5927 19.4528 26.3244 20.9835 26.5753L20.2266 31.1168C17.7275 30.7058 15.424 29.5102 13.6495 27.703C11.8751 25.8958 10.7218 23.5708 10.3566 21.0645L10.1951 19.9384C10.1524 19.6386 10.1693 19.3333 10.2449 19.0401C10.3205 18.7469 10.4532 18.4714 10.6354 18.2296C10.8176 17.9878 11.0458 17.7843 11.3069 17.6308C11.5679 17.4774 11.8567 17.3769 12.1566 17.3353ZM40.5666 19.6153C40.5666 20.2273 40.8097 20.8143 41.2425 21.2471C41.6753 21.6799 42.2623 21.923 42.8743 21.923H47.5128C48.1248 21.923 48.7118 21.6799 49.1445 21.2471C49.5773 20.8143 49.8205 20.2273 49.8205 19.6153C49.8205 19.0033 49.5773 18.4163 49.1445 17.9835C48.7118 17.5507 48.1248 17.3076 47.5128 17.3076H42.8743C42.2623 17.3076 41.6753 17.5507 41.2425 17.9835C40.8097 18.4163 40.5666 19.0033 40.5666 19.6153Z" fill="#362462"/>
<path fill-rule="evenodd" clip-rule="evenodd" d="M47.8433 17.336C47.2366 17.2489 46.6201 17.406 46.129 17.7729C45.638 18.1398 45.3126 18.6864 45.2241 19.2929L45.0625 20.4214C44.8372 21.9557 44.1301 23.3786 43.0433 24.4849C41.9566 25.5911 40.5464 26.3234 39.0164 26.576L39.7733 31.1175C42.2724 30.7065 44.5759 29.5109 46.3504 27.7037C48.1248 25.8965 49.2781 23.5715 49.6433 21.0652L49.8048 19.9391C49.8475 19.6393 49.8305 19.334 49.755 19.0408C49.6794 18.7476 49.5467 18.4721 49.3645 18.2303C49.1822 17.9885 48.9541 17.785 48.693 17.6315C48.432 17.478 48.1432 17.3776 47.8433 17.336Z" fill="#362462"/>
<path fill-rule="evenodd" clip-rule="evenodd" d="M30 55.3846C44.0192 55.3846 55.3846 44.0192 55.3846 30C55.3846 15.9808 44.0192 4.61538 30 4.61538C15.9808 4.61538 4.61538 15.9808 4.61538 30C4.61538 44.0192 15.9808 55.3846 30 55.3846ZM30 60C46.5692 60 60 46.5692 60 30C60 13.4308 46.5692 0 30 0C13.4308 0 0 13.4308 0 30C0 46.5692 13.4308 60 30 60Z" fill="#362462"/>
</svg>
