<svg width="54" height="48" viewBox="0 0 54 48" fill="none" xmlns="http://www.w3.org/2000/svg">
<path d="M25.1378 0.000126179C24.6711 0.00102962 24.2045 0.0116329 23.7383 0.0319287C22.7366 0.208646 22.274 0.643842 22.0228 1.14197C21.746 1.69118 21.7568 2.43019 22.0654 3.08732C22.3742 3.7448 22.9406 4.28228 23.7313 4.48302C24.5221 4.68375 25.6107 4.58 27.0415 3.67251L28.1852 5.4487C26.3874 6.58885 24.6478 6.88962 23.2056 6.52344C21.7635 6.15726 20.6935 5.15628 20.1405 3.97891C19.6195 2.86967 19.5238 1.56825 20.0235 0.412542C15.1457 1.1952 10.729 3.05123 7.33645 5.66354C6.22148 6.86887 6.11237 8.26975 6.60109 9.22653C7.15005 10.3008 8.44346 11.085 11.0303 10.2731L11.6731 12.2819C8.42482 13.3014 5.74742 12.2156 4.70826 10.1815C4.4548 9.68563 4.3 9.14894 4.23919 8.59555C3.69205 9.23972 3.1981 9.91028 2.76166 10.6079L2.77598 10.6147C1.79695 12.8268 1.77467 14.3591 2.16497 15.3548C2.55549 16.3506 3.3737 16.9833 4.63358 17.332C7.15312 18.0289 11.233 17.1879 14.1061 15.0589C15.3358 14.1477 16.5016 11.9376 16.6031 10.2237C16.6537 9.36659 16.4707 8.6895 16.1092 8.25712C15.7478 7.82474 15.1691 7.50119 13.971 7.51349L13.9498 5.40619C15.5963 5.38927 16.9333 5.94231 17.7431 6.91105C18.5527 7.87978 18.7955 9.12729 18.7233 10.3471C18.579 12.7867 17.2918 15.3285 15.3775 16.747C11.9819 19.2634 7.49704 20.3113 4.0653 19.362C2.47547 18.9222 1.06818 17.9652 0.343052 16.4829C-0.741912 21.608 0.834389 26.3687 3.83435 29.6633C4.22647 30.0941 4.64381 30.5012 5.08116 30.879C4.76815 29.9895 4.62472 29.0633 4.65836 28.1619C4.7186 26.5464 5.34962 24.9652 6.61552 23.8731C7.65366 22.977 9.08778 22.46 10.803 22.4634C10.9173 22.4634 11.0341 22.4654 11.151 22.4702C11.4181 22.4815 11.6923 22.5045 11.9716 22.5408L11.6943 24.6307C9.92259 24.3997 8.77272 24.8023 8.0077 25.4624C7.24279 26.1226 6.82079 27.1105 6.77873 28.2395C6.69463 30.4977 8.15057 33.1346 11.2898 33.8994L11.2861 33.9206C14.3767 34.5059 17.8255 33.9625 21.2879 31.8658C21.2899 31.8645 21.2928 31.8639 21.2949 31.8625C22.0155 31.3606 22.4037 30.8691 22.5949 30.4457C22.8205 29.9459 22.8158 29.5106 22.6552 29.043C22.3342 28.1081 21.1845 27.147 20.13 26.8792C18.4249 26.4461 17.3417 27.0411 16.8339 27.7498C16.3261 28.458 16.2952 29.1539 17.079 29.7583L15.7753 31.4217C14.1629 30.1775 14.06 27.9836 15.1042 26.5268C15.8875 25.4342 17.2619 24.6856 18.9189 24.6378C18.9888 24.6353 19.0587 24.6342 19.1285 24.6344C19.6179 24.6378 20.1276 24.7046 20.6557 24.8385C22.418 25.2863 24.0472 26.5614 24.6655 28.3627C24.8305 28.8456 24.9028 29.3549 24.8787 29.8642C26.778 28.9014 28.7808 28.0463 30.8209 27.4042C34.2484 25.8501 35.7343 23.1257 35.6763 20.8317C35.6178 18.5206 34.1776 16.5756 30.86 16.2501L31.0696 14.1532C35.2369 14.5621 37.7142 17.5193 37.7967 20.7787C37.8447 22.6778 37.1427 24.6539 35.7295 26.3362C37.5562 26.1332 39.3715 26.1676 41.1316 26.5197C40.7734 25.7898 40.5997 24.9997 40.6239 24.2148C40.7009 21.7297 42.8311 19.4114 46.1789 19.3761C46.4076 19.3739 46.6363 19.3821 46.8642 19.4007L46.6937 21.5011C43.8606 21.2758 42.7953 22.7513 42.7478 24.2817C42.701 25.7951 43.719 27.4892 46.6371 27.7141C49.8536 27.7423 52.1595 26.0114 53.2895 23.4392C54.8022 19.9956 54.0847 14.8326 49.3292 10.1107C49.2392 10.0212 49.1499 9.93103 49.0593 9.84284C49.0094 10.2634 48.9007 10.675 48.7363 11.0658C47.9123 13.0269 45.982 14.3507 43.9769 14.7204C41.2111 15.2304 38.9431 14.1174 37.8963 12.4192C36.8495 10.7211 37.1243 8.31982 39.0078 7.05562L40.1978 8.80362C39.1848 9.48343 39.1431 10.4039 39.7076 11.3196C40.2722 12.2356 41.5454 13.0288 43.5897 12.6519C44.8747 12.4149 46.3056 11.3742 46.7755 10.2555C47.0107 9.69612 47.0562 9.1433 46.8218 8.51086C46.6315 7.99718 46.2323 7.40973 45.4898 6.79105L45.4685 6.77357C42.3639 4.45189 39.0653 2.78215 35.7225 1.68103C35.7245 1.68464 35.7276 1.68779 35.7296 1.69151C36.4893 3.06962 36.5457 4.63289 36.0778 6.01573C35.142 8.78152 32.2055 10.9607 28.5728 10.8402C27.7831 10.8143 27.0316 11.1921 26.3922 11.9293C25.7527 12.6665 25.2858 13.7464 25.1774 14.8967C24.9609 17.1973 25.9643 19.7331 29.8765 20.9865L29.2222 22.9919C24.5529 21.496 22.7631 17.8554 23.0598 14.703C23.2083 13.1269 23.822 11.6623 24.7825 10.5551C25.743 9.4479 27.1096 8.68273 28.6434 8.73314C31.3757 8.82358 33.4537 7.14483 34.0633 5.34281C34.3682 4.44197 34.3287 3.54552 33.8644 2.70333C33.4134 1.88549 32.5199 1.07678 30.92 0.486635C29.0106 0.157598 27.0758 -0.00519176 25.1378 0.000126179ZM36.6417 28.4122C31.8778 28.7968 26.712 31.0512 22.4029 33.6632C16.0404 37.5199 9.34487 36.678 4.59426 33.1806C6.46322 39.8167 13.0858 41.1636 19.9947 39.4852C20.6861 39.2275 21.3654 38.7479 21.9447 38.1285C22.7468 37.2707 23.3279 36.1584 23.5109 35.2387L25.5958 35.6475C25.3179 37.044 24.564 38.4292 23.5038 39.563C22.4866 40.6507 21.1614 41.5197 19.6288 41.7479C18.8598 43.4474 18.227 45.0951 17.9701 46.2483C17.5667 48.0594 19.5847 48.7547 20.4883 46.9283C22.6503 42.5591 25.7017 38.6699 29.5133 35.3163C32.4757 33.3819 35.015 30.9967 36.6419 28.4122H36.6417Z" fill="#362462"/>
</svg>
