<svg width="129" height="131" viewBox="0 0 129 131" fill="none" xmlns="http://www.w3.org/2000/svg">
<path d="M119.986 46.1936C132.004 58.2598 132.004 77.8168 119.986 89.8734L88.0374 121.95C76.0193 134.017 56.5403 134.017 44.5318 121.95L35.0135 112.394C22.9954 100.328 22.9954 80.7706 35.0135 68.714L46.5701 57.1111C39.0612 64.6501 39.0612 76.8708 46.5701 84.4098L55.4058 93.2809C61.0399 98.9376 70.1736 98.9376 75.7981 93.2809L100.95 68.0287C109.603 59.341 112.554 47.1106 109.814 36C110.035 36.2027 110.247 36.4151 110.458 36.6274L119.977 46.1839L119.986 46.1936Z" fill="white"/>
<path d="M9.01275 86.6017C-3.00424 74.2814 -3.00424 54.3127 9.01275 42.0023L40.9683 9.24021C52.9853 -3.08006 72.4624 -3.08007 84.4698 9.24021L93.9873 18.9979C106.004 31.3181 106.004 51.2868 93.9873 63.5973L82.4317 75.4444C89.9399 67.7467 89.9399 55.2688 82.4317 47.5711L73.5968 38.5132C67.9633 32.7374 58.8304 32.7374 53.2064 38.5132L28.0573 64.2971C19.405 73.1677 16.4537 85.6555 19.1935 97C18.9724 96.793 18.7609 96.5762 18.5398 96.3593L9.02236 86.6017L9.01275 86.6017Z" fill="white"/>
</svg>
