<svg width="429" height="76" viewBox="0 0 429 76" fill="none" xmlns="http://www.w3.org/2000/svg">
<path d="M336.711 26.4345C343.763 33.4867 343.763 44.9169 336.711 51.9634L317.965 70.7109C310.913 77.7631 299.484 77.7631 292.438 70.7109L286.853 65.1256C279.802 58.0734 279.802 46.6432 286.853 39.5967L293.634 32.8153C289.228 37.2215 289.228 44.364 293.634 48.7702L298.818 53.9549C302.124 57.261 307.484 57.261 310.784 53.9549L325.541 39.1961C330.619 34.1186 332.351 26.9705 330.743 20.4768C330.872 20.5953 330.997 20.7194 331.121 20.8435L336.706 26.4289L336.711 26.4345Z" fill="#895AF6"/>
<path d="M271.289 49.5712C264.237 42.519 264.237 31.0889 271.289 24.0423L290.041 5.28914C297.092 -1.76305 308.522 -1.76305 315.568 5.28914L321.152 10.8745C328.204 17.9267 328.204 29.3568 321.152 36.4034L314.372 43.1848C318.777 38.7786 318.777 31.6361 314.372 27.2299L309.187 22.0451C305.881 18.7391 300.522 18.7391 297.222 22.0451L282.464 36.8039C277.387 41.8815 275.655 49.0296 277.263 55.5233C277.133 55.4048 277.009 55.2807 276.879 55.1566L271.294 49.5712H271.289Z" fill="#895AF6"/>
<path d="M84.994 26.1897V19.0425C84.994 19.0425 61.271 18.9469 51.4174 19.0425C48.3906 19.0724 44.7224 20.148 44.0631 28.6339C43.6076 34.4843 45.5076 41.7391 53.3533 49.2031C62.6915 58.0893 85 57 85 57V49.1314C85 49.1314 68.9909 48.9162 62.248 44.9602C54.8937 40.6455 50.0149 26.3212 54.8937 26.1838C56.512 26.1359 61.1392 26.2017 61.1392 26.2017L85 26.1778L84.994 26.1897Z" fill="white"/>
<path d="M75 36.0723H85V57.0668L80.5 57C77.5 56.5 75 54.9332 75 52.2993V36.0668V36.0723Z" fill="white"/>
<path d="M84.9934 34.4305V41.7571H66.4669L64.4351 34.4305H84.9934Z" fill="white"/>
<path d="M192.878 19H185V47.5C185 52.25 186.818 57 205.06 57C225.604 57 224.998 52.8438 224.998 46.9062V19H217.12C217.12 19 217.302 38.0594 217.12 44.5312C216.998 49.2812 209.847 49.2812 204.999 49.2812C200.151 49.2812 192.878 48.6875 192.878 45.125" fill="white"/>
<path d="M148.725 36.8125V32.6562H141V57H148.725V44.5312H163.104L172.493 57H182L172.374 44.1156C172.374 44.1156 181.168 43.4031 181.228 32.6562C181.287 20.3063 171.304 19 171.304 19H141V26.7188H166.551C170.948 26.7781 172.255 29.1531 172.374 31.5281C172.493 35.4469 170.591 36.575 167.145 36.8125C166.016 36.8719 148.725 36.8125 148.725 36.8125Z" fill="white"/>
<path d="M352.725 36.8125V32.6562H345V57H352.725V44.5312H367.104L376.493 57H386L376.374 44.1156C376.374 44.1156 385.168 43.4031 385.228 32.6562C385.287 20.3063 375.304 19 375.304 19H345V26.7188H370.551C374.948 26.7781 376.255 29.1531 376.374 31.5281C376.493 35.4469 374.591 36.575 371.145 36.8125C370.016 36.8719 352.725 36.8125 352.725 36.8125Z" fill="white"/>
<path d="M401.563 44.5312L418.333 44.4719L420.585 44.3531C420.585 44.3531 429 43.4031 429 32.5969C429.059 20.2469 419.222 19 419.222 19H389V26.7188C390.185 26.7188 405.83 26.6 415.074 26.7188C419.459 26.7781 420.052 29.0938 420.17 31.4688C420.289 35.3875 418.511 36.575 415.074 36.8125C413.948 36.9313 396.704 36.8125 396.704 36.8125V32.6562H389V57H396.704V44.5312H401.563Z" fill="white"/>
<path d="M98.119 57H88L108.238 19H116.571L138 57H127.881L123.714 50.4688H108.833L112.405 43.3438H120.143L112.405 29.6875L98.119 57Z" fill="white"/>
<path d="M10.119 57H0L20.2381 19H28.5714L50 57H39.881L35.7143 50.4688H20.8333L24.4048 43.3438H32.1429L24.4048 29.6875L10.119 57Z" fill="white"/>
<path d="M266.994 26.1404V19.0422C266.994 19.0422 244.429 18.9472 235.056 19.0422C232.176 19.0719 228.687 20.1402 228.06 28.5678C227.627 34.3781 229.434 41.5831 236.897 48.9959C245.78 57.8211 267 56.9783 267 56.9783V48.9246C267 48.9246 251.772 48.711 245.358 44.782C238.362 40.497 233.721 26.271 238.362 26.1345C239.902 26.087 244.303 26.1522 244.303 26.1522L267 26.1285L266.994 26.1404Z" fill="white"/>
</svg>
