<svg width="573" height="55" viewBox="0 0 573 55" fill="none" xmlns="http://www.w3.org/2000/svg">
<path d="M181.908 45.7219H169.027L202.846 9.21777H213.345V45.7219H203.517V38.5798H191.186L198.084 31.3766L203.639 31.3156L203.822 20.9382L181.908 45.7219Z" fill="white"/>
<path d="M274.085 45.7216H261.266L294.901 9.27856H305.278V45.7216H295.511V38.5185H283.302L290.139 31.3764L295.694 31.3153L295.816 20.9379L274.085 45.7216Z" fill="white"/>
<path d="M236.544 31.2542L242.892 23.3186H258.214V45.7216C258.214 45.7216 233.614 45.7826 229.707 45.5385C224.579 45.1722 221.588 42.4252 219.879 40.1056C216.765 35.8325 217.071 32.9024 217.071 28.9346C217.071 23.1354 217.132 18.1299 220.306 14.162C220.977 13.3684 222.687 10.3773 229.707 9.46164C232.332 9.15642 258.214 9.27851 258.214 9.27851L250.645 18.313C250.645 18.313 242.038 18.374 231.721 18.374C226.471 18.9234 226.532 23.0133 226.471 27.4085C226.471 31.6205 225.495 35.7715 231.294 36.504C232.515 36.6871 248.386 36.6261 248.386 36.6261L248.264 31.3153L236.544 31.2542Z" fill="white"/>
<path d="M308.332 45.7216V9.27856C308.332 9.27856 338.243 9.27856 339.831 9.40065C343.371 9.64482 348.56 11.232 348.804 20.6327C349.048 31.0712 338.732 31.6206 338.732 31.6206L352.283 45.7216H339.22L319.503 23.9901C319.503 23.9901 336.229 23.807 336.9 23.807C338.488 23.807 339.708 22.6471 339.77 20.9379C339.831 18.9845 338.427 17.6415 336.962 17.6415C336.229 17.6415 318.038 17.7026 318.038 17.7026L317.794 45.7216H308.332Z" fill="white"/>
<path d="M484.371 45.7828V9.15662C484.371 9.15662 514.405 9.09558 515.992 9.21766C519.532 9.46184 524.599 11.11 524.843 20.5718C525.087 31.0713 514.771 31.6207 514.771 31.6207L528.323 45.7828H515.259L495.542 23.9292C495.542 23.9292 512.268 23.7461 512.94 23.7461C514.527 23.7461 515.748 22.5862 515.809 20.816C515.87 18.8626 514.466 17.5196 513.001 17.5196C512.268 17.5196 494.077 17.5807 494.077 17.5807L493.833 45.7218L484.371 45.7828Z" fill="white"/>
<path d="M428.974 36.6263L436.666 45.7218C436.666 45.7218 410.905 45.905 408.097 45.6608C404.557 45.2946 401.382 43.097 400.223 42.2424C395.888 38.8239 393.996 31.8649 393.996 28.0192C393.996 21.1823 396.194 16.6651 399.734 13.5518C401.932 11.5984 403.641 10.1334 408.036 9.52294C411.394 9.03459 436.605 9.21772 436.605 9.21772L428.486 18.3132C428.486 18.3132 413.103 17.947 410.234 18.9237C406.266 20.816 404.74 22.6473 404.618 27.4698C404.496 32.1091 406.693 34.795 410.295 35.9549C414.446 37.0536 428.974 36.6263 428.974 36.6263Z" fill="white"/>
<path d="M381.541 15.9323L390.942 9.3396C390.942 9.3396 390.942 31.3764 390.881 33.7571C390.82 36.9314 388.256 40.2888 387.279 41.2044C383.556 44.9281 375.925 45.5385 371.713 45.5385C364.327 45.5385 359.321 44.1956 355.964 41.2044C353.888 39.3121 351.996 36.1378 351.996 32.7193C351.996 28.4463 351.996 9.27856 351.996 9.27856L361.519 15.8102C361.519 15.8102 361.275 31.2543 361.702 32.7804C362.984 36.7482 368.356 36.7482 371.286 36.8703C375.376 36.9924 379.893 35.7715 381.175 32.7193C381.724 30.7049 381.541 15.9323 381.541 15.9323Z" fill="white"/>
<path d="M531.375 45.7217L531.436 9.09546C531.436 9.09546 560.493 9.09546 563.545 9.09546C570.443 9.09546 573.007 16.0544 573.007 20.6938C573.007 26.4929 570.687 30.827 564.949 31.4985C562.446 31.8037 550.726 31.6206 550.726 31.6206L543.401 23.7459C543.401 23.7459 560.005 23.868 560.859 23.807C562.385 23.7459 563.362 22.2198 563.484 20.999C563.606 19.4729 562.752 17.7637 560.798 17.4584C559.455 17.2753 541.264 17.2143 541.264 17.2143L541.447 45.6606L531.375 45.7217Z" fill="white"/>
<path d="M39.7395 54.7562L90.4668 0H50.7884L0 54.8173" fill="#895AF6"/>
<path d="M69.4072 54.9393L120.135 0.183105H99.3186L48.6523 54.9393" fill="#895AF6"/>
<path d="M100.294 54.7562L151.021 0H130.205L79.5391 54.7562" fill="#895AF6"/>
<path d="M159.568 0.183105L109.023 54.7562L139.912 54.9393L159.568 33.7571V0.183105Z" fill="#895AF6"/>
<path d="M459.222 9.09555C440.604 9.03451 436.819 17.3364 437.002 27.4697C437.246 43.8904 446.952 45.8439 459.222 45.8439C471.492 45.8439 481.686 43.8904 481.442 27.4697C481.259 17.3364 479.306 9.15659 459.222 9.09555ZM459.283 37.5419C447.441 37.5419 446.891 33.3299 446.891 27.5307C446.891 21.7316 450.432 17.3975 459.222 17.3975C468.562 17.3975 471.492 21.7316 471.492 27.5307C471.492 34.0014 470.821 37.5419 459.283 37.5419Z" fill="white"/>
</svg>
