<svg width="1123" height="217" viewBox="0 0 1123 217" fill="none" xmlns="http://www.w3.org/2000/svg">
<path d="M345.484 145.391H329.875L296.922 89.9844L271.797 132.078H294.531L302.453 145.391H248.125C266.812 114.109 281.172 90.1094 291.203 73.3906H302.547L345.484 145.391ZM435.719 145.391H371.734L363.812 132.078H422.219V116.141H384.719V102.828H435.719V145.391ZM353.875 103.25V116.141H340.609V103.719C340.609 101.094 340.938 98.5156 341.594 95.9844C342.25 93.4531 343.203 91.0469 344.453 88.7656C345.734 86.5156 347.266 84.4531 349.047 82.5781C350.859 80.7031 352.875 79.0625 355.094 77.6562C357.344 76.25 359.781 75.1875 362.406 74.4688C365.031 73.75 367.766 73.3906 370.609 73.3906H425.078L425.781 74.5625L430.844 83.0469L433 86.6562H370.891C369.297 86.6562 367.828 86.8281 366.484 87.1719C365.141 87.5156 363.797 88.0781 362.453 88.8594C361.109 89.6094 359.938 90.4688 358.938 91.4375C357.938 92.375 357.031 93.5 356.219 94.8125C355.406 96.125 354.812 97.4531 354.438 98.7969C354.062 100.109 353.875 101.594 353.875 103.25ZM542.641 145.391H527.031L494.078 89.9844L468.953 132.078H491.688L499.609 145.391H445.281C463.969 114.109 478.328 90.1094 488.359 73.3906H499.703L542.641 145.391ZM607.562 145.391H591.906L574.844 124.203H550.562L544.422 110.984H586.141C589.297 110.984 591.906 110.391 593.969 109.203C596.062 108.016 597.609 106.484 598.609 104.609C599.641 102.703 600.156 100.781 600.156 98.8438C600.156 96.8438 599.641 94.9219 598.609 93.0781C597.609 91.2031 596.062 89.6719 593.969 88.4844C591.906 87.2969 589.297 86.7031 586.141 86.7031H526.938L520.844 73.3906H587.547C595.453 73.3906 601.781 76.0469 606.531 81.3594C610.719 86.2344 612.812 92.0469 612.812 98.7969C612.812 101.953 612.297 105.031 611.266 108.031C609.578 112.812 606.797 116.641 602.922 119.516C599.328 122.141 595.141 123.672 590.359 124.109L607.562 145.391ZM673.844 145.391C670.375 145.391 667.047 145.203 663.859 144.828C657.391 144.016 652 142.406 647.688 140C642.438 137.062 638.188 133.047 634.938 127.953C631.781 123.109 629.953 117.531 629.453 111.219V73.3906H642.531C642.531 82.1719 642.5 90.9531 642.438 99.7344C642.438 103.828 642.453 106.828 642.484 108.734V111.594C642.609 111.781 642.688 111.984 642.719 112.203C643.531 117.703 646.047 122.25 650.266 125.844C650.453 125.938 650.594 126.078 650.688 126.266C652.375 127.516 654.391 128.578 656.734 129.453H656.781C661.375 131.172 667.062 132.031 673.844 132.031C676.75 132.031 679.719 131.797 682.75 131.328H682.797C689.234 130.484 694.062 128.734 697.281 126.078V126.031C699.406 124.312 701.078 122.359 702.297 120.172C703.547 117.953 704.438 115.328 704.969 112.297L705.016 111.359C705.109 110.391 705.156 106.75 705.156 100.438V73.3906H718.234V111.266C718.047 114.266 717.5 117.172 716.594 119.984C714.688 125.766 711.547 130.703 707.172 134.797C702.953 138.766 698.172 141.469 692.828 142.906C687.266 144.562 680.938 145.391 673.844 145.391ZM821.547 145.391H766.188C760.812 145.391 756.375 144.422 752.875 142.484C749.062 140.391 745.906 137.672 743.406 134.328C738.188 127.297 735.578 118.953 735.578 109.297C735.578 99.5469 738.172 91.1875 743.359 84.2188C746.047 80.6562 749.312 77.9688 753.156 76.1562C757 74.3125 761.297 73.3906 766.047 73.3906H810.953L818.875 86.6562H766.422C764.047 86.6562 761.969 87.0156 760.188 87.7344C758.406 88.4531 756.719 89.6094 755.125 91.2031C750.594 95.7344 748.328 101.953 748.328 109.859C748.328 114.922 749.5 119.484 751.844 123.547C753.312 126.109 755.281 128.172 757.75 129.734C760.219 131.297 763.125 132.078 766.469 132.078H821.547V145.391ZM890.688 145.391H856.234L848.312 132.125H890.688C894.656 132.125 897.922 131.078 900.484 128.984C903.203 126.766 905.203 123.953 906.484 120.547C907.891 116.984 908.594 113.25 908.594 109.344C908.594 105.5 907.891 101.797 906.484 98.2344C905.203 94.8281 903.203 92.0156 900.484 89.7969C897.922 87.7031 894.656 86.6562 890.688 86.6562H855.906C853.406 86.6562 851.188 87.0625 849.25 87.875C847.312 88.6875 845.453 89.9844 843.672 91.7656C841.922 93.5156 840.641 95.3594 839.828 97.2969C839.016 99.2344 838.609 101.453 838.609 103.953V115.531H825.344V103.953C825.344 98.3281 826.719 93.2031 829.469 88.5781C832.219 83.9531 835.906 80.2656 840.531 77.5156C845.156 74.7656 850.281 73.3906 855.906 73.3906H890.688C895.562 73.3906 899.984 74.3594 903.953 76.2969C907.922 78.2344 911.297 81.0625 914.078 84.7812C919.172 91.625 921.719 99.8125 921.719 109.344C921.719 118.875 919.172 127.062 914.078 133.906C911.297 137.656 907.922 140.516 903.953 142.484C899.984 144.422 895.562 145.391 890.688 145.391ZM1010.78 145.391H995.125L978.062 124.203H953.781L947.641 110.984H989.359C992.516 110.984 995.125 110.391 997.188 109.203C999.281 108.016 1000.83 106.484 1001.83 104.609C1002.86 102.703 1003.38 100.781 1003.38 98.8438C1003.38 96.8438 1002.86 94.9219 1001.83 93.0781C1000.83 91.2031 999.281 89.6719 997.188 88.4844C995.125 87.2969 992.516 86.7031 989.359 86.7031H930.156L924.062 73.3906H990.766C998.672 73.3906 1005 76.0469 1009.75 81.3594C1013.94 86.2344 1016.03 92.0469 1016.03 98.7969C1016.03 101.953 1015.52 105.031 1014.48 108.031C1012.8 112.812 1010.02 116.641 1006.14 119.516C1002.55 122.141 998.359 123.672 993.578 124.109L1010.78 145.391ZM1045.61 145.391H1032.11V109.906H1093.84C1096.38 109.906 1098.48 109.359 1100.17 108.266C1101.86 107.141 1103.12 105.719 1103.97 104C1104.81 102.25 1105.23 100.375 1105.23 98.375C1105.23 96.4688 1104.81 94.6406 1103.97 92.8906C1103.12 91.1094 1101.86 89.6719 1100.17 88.5781C1098.48 87.4531 1096.38 86.8906 1093.84 86.8906H1030.89L1022.73 73.3906H1093.84C1099.31 73.3906 1103.84 74.5938 1107.44 77C1111.06 79.4062 1113.78 82.5 1115.59 86.2812C1117.41 90.0312 1118.31 93.9375 1118.31 98C1118.31 102.031 1117.41 105.938 1115.59 109.719C1113.78 113.469 1111.06 116.547 1107.44 118.953C1103.84 121.359 1099.31 122.562 1093.84 122.562H1045.61V145.391Z" fill="white"/>
<path d="M196.561 75.9535C215.813 96.0216 215.813 128.548 196.561 148.6L145.38 201.949C126.128 222.017 94.924 222.017 75.6871 201.949L60.4392 186.055C41.1869 165.987 41.1869 133.461 60.4392 113.409L78.9523 94.1111C66.9234 106.65 66.9234 126.975 78.9523 139.513L93.1066 154.267C102.132 163.675 116.764 163.675 125.774 154.267L166.065 112.269C179.927 97.8197 184.655 77.4787 180.266 59C180.62 59.3371 180.959 59.6903 181.298 60.0435L196.545 75.9375L196.561 75.9535Z" fill="white"/>
<path d="M14.7004 141.063C-4.90013 120.994 -4.90013 88.4681 14.7004 68.4161L66.8221 15.0511C86.4226 -5.01702 118.191 -5.01702 137.776 15.0511L153.3 30.945C172.9 51.0131 172.9 83.5394 153.3 103.591L134.452 122.889C146.698 110.35 146.698 90.0254 134.452 77.4869L120.041 62.7328C110.853 53.3249 95.9563 53.3249 86.7833 62.7328L45.7633 104.731C31.6509 119.18 26.837 139.521 31.306 158C30.9453 157.663 30.6003 157.31 30.2397 156.956L14.7161 141.063H14.7004Z" fill="white"/>
</svg>
