<svg width="274" height="110" viewBox="0 0 274 110" fill="none" xmlns="http://www.w3.org/2000/svg">
<rect x="272.5" y="1.5" width="107" height="271" rx="53.5" transform="rotate(90 272.5 1.5)" fill="#F3F3FF" stroke="#895AF6" stroke-width="3"/>
<path d="M58.4186 68.28C56.9253 68.28 55.4986 68.0933 54.1386 67.72C52.8053 67.32 51.5919 66.72 50.4986 65.92C49.4319 65.0933 48.5519 64.0667 47.8586 62.84C47.1653 61.5867 46.7386 60.1067 46.5786 58.4H53.6186C53.7253 59.0667 53.9919 59.64 54.4186 60.12C54.8453 60.5733 55.4053 60.92 56.0986 61.16C56.7919 61.4 57.5786 61.52 58.4586 61.52C59.0453 61.52 59.5653 61.4667 60.0186 61.36C60.4986 61.2533 60.8986 61.0933 61.2186 60.88C61.5386 60.6667 61.7786 60.4133 61.9386 60.12C62.0986 59.8 62.1786 59.4267 62.1786 59C62.1786 58.6533 62.1119 58.3467 61.9786 58.08C61.8719 57.7867 61.6986 57.5333 61.4586 57.32C61.2453 57.1067 60.9519 56.9467 60.5786 56.84C60.2319 56.7067 59.8186 56.64 59.3386 56.64H55.6586V50.6H58.2586C58.7919 50.6 59.2453 50.5333 59.6186 50.4C59.9919 50.2667 60.2853 50.0933 60.4986 49.88C60.7386 49.6667 60.9119 49.4267 61.0186 49.16C61.1253 48.8667 61.1786 48.5733 61.1786 48.28C61.1786 47.8267 61.0719 47.44 60.8586 47.12C60.6453 46.7733 60.3119 46.5067 59.8586 46.32C59.4053 46.1067 58.8319 46 58.1386 46C57.3919 46 56.7386 46.12 56.1786 46.36C55.6186 46.5733 55.1786 46.88 54.8586 47.28C54.5386 47.6533 54.3519 48.08 54.2986 48.56H47.3386C47.4986 46.96 47.8986 45.5867 48.5386 44.44C49.1786 43.2667 50.0053 42.3067 51.0186 41.56C52.0319 40.7867 53.1786 40.2267 54.4586 39.88C55.7386 39.5067 57.0853 39.32 58.4986 39.32C59.7253 39.32 60.9253 39.4667 62.0986 39.76C63.2719 40.0267 64.3253 40.48 65.2586 41.12C66.2186 41.7333 66.9786 42.5467 67.5386 43.56C68.1253 44.5733 68.4186 45.8 68.4186 47.24C68.4186 47.9867 68.2853 48.7067 68.0186 49.4C67.7786 50.0933 67.4319 50.72 66.9786 51.28C66.5519 51.8133 66.0719 52.2533 65.5386 52.6C66.4453 52.9733 67.1786 53.5067 67.7386 54.2C68.3253 54.8667 68.7519 55.6533 69.0186 56.56C69.3119 57.44 69.4586 58.3733 69.4586 59.36C69.4586 60.9867 69.1519 62.3733 68.5386 63.52C67.9253 64.6667 67.0853 65.5867 66.0186 66.28C64.9786 66.9733 63.8053 67.48 62.4986 67.8C61.1919 68.12 59.8319 68.28 58.4186 68.28Z" fill="#181E58"/>
<circle cx="219" cy="55" r="53.5" fill="#895AF6" stroke="#895AF6" stroke-width="3"/>
<path d="M217.138 34.0001C216.671 34.001 216.205 34.0116 215.738 34.0319C214.737 34.2086 214.274 34.6438 214.023 35.142C213.746 35.6912 213.757 36.4302 214.065 37.0873C214.374 37.7448 214.941 38.2823 215.731 38.483C216.522 38.6838 217.611 38.58 219.042 37.6725L220.185 39.4487C218.387 40.5888 216.648 40.8896 215.206 40.5234C213.764 40.1573 212.693 39.1563 212.141 37.9789C211.62 36.8697 211.524 35.5683 212.023 34.4125C207.146 35.1952 202.729 37.0512 199.336 39.6635C198.221 40.8689 198.112 42.2697 198.601 43.2265C199.15 44.3008 200.443 45.085 203.03 44.2731L203.673 46.2819C200.425 47.3014 197.747 46.2156 196.708 44.1815C196.455 43.6856 196.3 43.1489 196.239 42.5956C195.692 43.2397 195.198 43.9103 194.762 44.6079L194.776 44.6147C193.797 46.8268 193.775 48.3591 194.165 49.3548C194.555 50.3506 195.374 50.9833 196.634 51.332C199.153 52.0289 203.233 51.1879 206.106 49.0589C207.336 48.1477 208.502 45.9376 208.603 44.2237C208.654 43.3666 208.471 42.6895 208.109 42.2571C207.748 41.8247 207.169 41.5012 205.971 41.5135L205.95 39.4062C207.596 39.3893 208.933 39.9423 209.743 40.911C210.553 41.8798 210.796 43.1273 210.723 44.3471C210.579 46.7867 209.292 49.3285 207.378 50.747C203.982 53.2634 199.497 54.3113 196.065 53.362C194.475 52.9222 193.068 51.9652 192.343 50.4829C191.258 55.608 192.834 60.3687 195.834 63.6633C196.226 64.0941 196.644 64.5012 197.081 64.879C196.768 63.9895 196.625 63.0633 196.658 62.1619C196.719 60.5464 197.35 58.9652 198.616 57.8731C199.654 56.977 201.088 56.46 202.803 56.4634C202.917 56.4634 203.034 56.4654 203.151 56.4702C203.418 56.4815 203.692 56.5045 203.972 56.5408L203.694 58.6307C201.923 58.3997 200.773 58.8023 200.008 59.4624C199.243 60.1226 198.821 61.1105 198.779 62.2395C198.695 64.4977 200.151 67.1346 203.29 67.8994L203.286 67.9206C206.377 68.5059 209.825 67.9625 213.288 65.8658C213.29 65.8645 213.293 65.8639 213.295 65.8625C214.016 65.3606 214.404 64.8691 214.595 64.4457C214.821 63.9459 214.816 63.5106 214.655 63.043C214.334 62.1081 213.184 61.147 212.13 60.8792C210.425 60.4461 209.342 61.0411 208.834 61.7498C208.326 62.458 208.295 63.1539 209.079 63.7583L207.775 65.4217C206.163 64.1775 206.06 61.9836 207.104 60.5268C207.888 59.4342 209.262 58.6856 210.919 58.6378C210.989 58.6353 211.059 58.6342 211.129 58.6344C211.618 58.6378 212.128 58.7046 212.656 58.8385C214.418 59.2863 216.047 60.5614 216.666 62.3627C216.83 62.8456 216.903 63.3549 216.879 63.8642C218.778 62.9013 220.781 62.0463 222.821 61.4042C226.248 59.8501 227.734 57.1257 227.676 54.8317C227.618 52.5206 226.178 50.5756 222.86 50.2501L223.07 48.1532C227.237 48.5621 229.714 51.5193 229.797 54.7787C229.845 56.6778 229.143 58.6539 227.73 60.3362C229.556 60.1332 231.372 60.1676 233.132 60.5197C232.773 59.7898 232.6 58.9997 232.624 58.2148C232.701 55.7297 234.831 53.4114 238.179 53.3761C238.408 53.3739 238.636 53.3821 238.864 53.4007L238.694 55.5011C235.861 55.2758 234.795 56.7513 234.748 58.2817C234.701 59.7951 235.719 61.4892 238.637 61.7141C241.854 61.7423 244.159 60.0114 245.289 57.4392C246.802 53.9956 246.085 48.8326 241.329 44.1107C241.239 44.0212 241.15 43.931 241.059 43.8428C241.009 44.2634 240.901 44.675 240.736 45.0658C239.912 47.0269 237.982 48.3507 235.977 48.7204C233.211 49.2304 230.943 48.1174 229.896 46.4192C228.85 44.7211 229.124 42.3198 231.008 41.0556L232.198 42.8036C231.185 43.4834 231.143 44.4039 231.708 45.3196C232.272 46.2356 233.545 47.0288 235.59 46.6519C236.875 46.4149 238.306 45.3742 238.775 44.2555C239.011 43.6961 239.056 43.1433 238.822 42.5109C238.631 41.9972 238.232 41.4097 237.49 40.7911L237.469 40.7736C234.364 38.4519 231.065 36.7822 227.722 35.681C227.725 35.6846 227.728 35.6878 227.73 35.6915C228.489 37.0696 228.546 38.6329 228.078 40.0157C227.142 42.7815 224.206 44.9607 220.573 44.8402C219.783 44.8143 219.032 45.1921 218.392 45.9293C217.753 46.6665 217.286 47.7464 217.177 48.8967C216.961 51.1973 217.964 53.7331 221.876 54.9865L221.222 56.9919C216.553 55.496 214.763 51.8554 215.06 48.703C215.208 47.1269 215.822 45.6623 216.782 44.5551C217.743 43.4479 219.11 42.6827 220.643 42.7331C223.376 42.8236 225.454 41.1448 226.063 39.3428C226.368 38.442 226.329 37.5455 225.864 36.7033C225.413 35.8855 224.52 35.0768 222.92 34.4866C221.011 34.1576 219.076 33.9948 217.138 34.0001ZM228.642 62.4122C223.878 62.7968 218.712 65.0512 214.403 67.6632C208.04 71.5199 201.345 70.678 196.594 67.1806C198.463 73.8167 205.086 75.1636 211.995 73.4852C212.686 73.2275 213.365 72.7479 213.945 72.1285C214.747 71.2707 215.328 70.1584 215.511 69.2387L217.596 69.6475C217.318 71.044 216.564 72.4292 215.504 73.563C214.487 74.6507 213.161 75.5197 211.629 75.7479C210.86 77.4474 210.227 79.0951 209.97 80.2483C209.567 82.0594 211.585 82.7547 212.488 80.9283C214.65 76.5591 217.702 72.6699 221.513 69.3163C224.476 67.3819 227.015 64.9967 228.642 62.4122H228.642Z" fill="#362462"/>
</svg>
