<svg width="274" height="110" viewBox="0 0 274 110" fill="none" xmlns="http://www.w3.org/2000/svg">
<rect x="272.5" y="1.5" width="107" height="271" rx="53.5" transform="rotate(90 272.5 1.5)" fill="#F3F3FF" stroke="#00F0FF" stroke-width="3"/>
<path d="M55.9359 68V48.52H50.5359V42.92C51.6559 42.92 52.6693 42.8267 53.5759 42.64C54.4826 42.4533 55.2959 42.12 56.0159 41.64C56.7359 41.16 57.3626 40.5067 57.8959 39.68H63.1759V68H55.9359Z" fill="#181E58"/>
<circle cx="219" cy="55" r="53.5" fill="#00F0FF" stroke="#00F0FF" stroke-width="3"/>
<path d="M217.451 27.5276C217.899 27.185 218.442 27 219 27C219.558 27 220.101 27.185 220.549 27.5276C223.751 29.9082 230.812 37.2395 230.812 54.9321C230.812 60.7755 228.765 67.8093 227.243 72.1107C226.875 73.1657 225.904 73.8691 224.801 73.8691H213.225C212.123 73.8691 211.125 73.1657 210.757 72.1107C209.235 67.8093 207.188 60.7755 207.188 54.9321C207.188 37.2395 214.249 29.9082 217.451 27.5276ZM224.25 49.5215C224.25 46.5457 221.888 44.111 219 44.111C216.112 44.111 213.75 46.5457 213.75 49.5215C213.75 52.4974 216.112 54.9321 219 54.9321C221.888 54.9321 224.25 52.4974 224.25 49.5215ZM207.686 75.2759C206.426 71.9484 203.696 63.9948 203.302 56.6905L200.336 58.7195C198.866 59.7475 198 61.4248 198 63.2373V75.2759C198 77.1966 199.864 78.4951 201.596 77.7918L207.686 75.2759ZM240 75.2759V63.2373C240 61.4248 239.134 59.7475 237.664 58.7466L234.697 56.7176C234.304 63.9948 231.547 71.9754 230.314 75.3029L236.404 77.8188C238.136 78.4951 240 77.1966 240 75.2759Z" fill="#362462"/>
</svg>
