<svg width="274" height="110" viewBox="0 0 274 110" fill="none" xmlns="http://www.w3.org/2000/svg">
<rect x="272.5" y="1.5" width="107" height="271" rx="53.5" transform="rotate(90 272.5 1.5)" fill="#F3F3FF" stroke="#E05AF6" stroke-width="3"/>
<path d="M59.8266 68V63.08H46.1066V57.56L58.7866 39.68H66.9866V56.52H70.1066V63.08H66.9866V68H59.8266ZM54.2266 56.52H59.8266V48.08L54.2266 56.52Z" fill="#181E58"/>
<circle cx="219" cy="55" r="53.5" fill="#E05AF6" stroke="#E05AF6" stroke-width="3"/>
<path d="M226.619 54.7879C226.966 54.9421 227.333 55 227.68 55C228.471 55 229.242 54.6721 229.801 54.0743L234.314 49.2143H240.215C243.397 49.2143 246 46.6107 246 43.4286V33.7857C246 30.6036 243.397 28 240.215 28H224.787C221.605 28 219.002 30.6036 219.002 33.7857V43.4093C219.002 46.5914 221.605 49.195 224.787 49.195V52.0879C224.787 53.3029 225.501 54.3443 226.619 54.7879ZM208.395 58.8571C203.073 58.8571 198.753 54.5371 198.753 49.2143C198.753 43.8914 203.073 39.5714 208.395 39.5714C213.718 39.5714 218.038 43.8914 218.038 49.2143C218.038 54.5371 213.718 58.8571 208.395 58.8571ZM208.395 81.9807C202.803 81.9807 198.522 80.4379 195.629 77.4139C191.905 73.5278 191.992 68.5714 192.002 68.0834V68.0506C192.004 65.1443 194.434 62.7143 197.442 62.7143H219.349C222.338 62.7143 224.787 65.1424 224.787 68.1471V68.1664C224.795 68.5174 224.903 73.5085 221.162 77.4331C218.269 80.4591 213.988 82 208.395 82V81.9807Z" fill="#362462"/>
</svg>
