<svg width="274" height="110" viewBox="0 0 274 110" fill="none" xmlns="http://www.w3.org/2000/svg">
<rect x="272.5" y="1.5" width="107" height="271" rx="53.5" transform="rotate(90 272.5 1.5)" fill="#F3F3FF" stroke="#FF6164" stroke-width="3"/>
<path d="M58.3748 68.28C56.9615 68.28 55.6548 68.0933 54.4548 67.72C53.2815 67.3467 52.2282 66.7733 51.2948 66C50.3882 65.2 49.6415 64.2 49.0548 63C48.4682 61.7733 48.0815 60.3333 47.8948 58.68H54.9348C55.0148 59.0533 55.1882 59.4667 55.4548 59.92C55.7482 60.3733 56.1615 60.76 56.6948 61.08C57.2548 61.3733 57.9615 61.52 58.8148 61.52C59.6415 61.52 60.2815 61.36 60.7348 61.04C61.2148 60.72 61.5615 60.32 61.7748 59.84C61.9882 59.36 62.0948 58.8667 62.0948 58.36C62.0948 57.4267 61.7882 56.64 61.1748 56C60.5615 55.3333 59.6148 55 58.3348 55C57.6148 55 56.9348 55.12 56.2948 55.36C55.6548 55.6 55.0148 55.9333 54.3748 56.36H48.6548V39.68H68.4148V46.28H55.5348V49.92C56.4148 49.3867 57.3748 49.0533 58.4148 48.92C59.4815 48.76 60.3882 48.7067 61.1348 48.76C62.9748 48.84 64.5082 49.2667 65.7348 50.04C66.9615 50.7867 67.8815 51.8267 68.4948 53.16C69.1082 54.4667 69.4148 56 69.4148 57.76C69.4148 60.0533 68.9215 61.9867 67.9348 63.56C66.9748 65.1333 65.6548 66.32 63.9748 67.12C62.3215 67.8933 60.4548 68.28 58.3748 68.28Z" fill="#181E58"/>
<circle cx="219" cy="55" r="53.5" fill="#FF6164" stroke="#FF6164" stroke-width="3"/>
<path fill-rule="evenodd" clip-rule="evenodd" d="M227.481 42.3078H210.293L211.758 52.5032C214.578 58.5562 223.195 58.5562 226.015 52.5032L227.481 42.3078ZM210.293 37.6924C209.631 37.6922 208.977 37.8344 208.375 38.1093C207.773 38.3841 207.237 38.7852 206.804 39.2853C206.37 39.7854 206.05 40.3729 205.863 41.0079C205.677 41.6428 205.629 42.3105 205.724 42.9655L207.201 53.2255C207.257 53.6193 207.368 53.9978 207.533 54.3608C211.975 64.0924 225.798 64.0924 230.241 54.3608C230.405 53.9978 230.516 53.6193 230.573 53.2255L232.05 42.9655C232.144 42.3105 232.096 41.6428 231.91 41.0079C231.724 40.3729 231.403 39.7854 230.97 39.2853C230.536 38.7852 230 38.3841 229.398 38.1093C228.796 37.8344 228.142 37.6922 227.481 37.6924H210.293Z" fill="#362462"/>
<path fill-rule="evenodd" clip-rule="evenodd" d="M216.577 67.6926V60.7695H221.192V67.6926H216.577Z" fill="#362462"/>
<path fill-rule="evenodd" clip-rule="evenodd" d="M214.518 69.9999C215.705 68.8963 217.266 68.2828 218.887 68.2828C220.507 68.2828 222.068 68.8963 223.255 69.9999H214.518ZM225.849 67.6922C223.999 65.8522 221.497 64.8193 218.888 64.8193C216.279 64.8193 213.776 65.8522 211.927 67.6922L210.09 69.5176C208.631 70.9715 209.658 73.4615 211.719 73.4615H226.054C228.115 73.4615 229.142 70.9692 227.684 69.5176L225.849 67.6922ZM208.433 44.6153C208.433 45.2273 208.19 45.8143 207.757 46.2471C207.324 46.6799 206.737 46.923 206.125 46.923H201.487C200.875 46.923 200.288 46.6799 199.855 46.2471C199.422 45.8143 199.179 45.2273 199.179 44.6153C199.179 44.0033 199.422 43.4163 199.855 42.9835C200.288 42.5507 200.875 42.3076 201.487 42.3076H206.125C206.737 42.3076 207.324 42.5507 207.757 42.9835C208.19 43.4163 208.433 44.0033 208.433 44.6153Z" fill="#362462"/>
<path fill-rule="evenodd" clip-rule="evenodd" d="M201.157 42.3353C201.763 42.2482 202.38 42.4053 202.871 42.7722C203.362 43.1391 203.687 43.6857 203.776 44.2922L203.937 45.4207C204.161 46.9557 204.868 48.3796 205.955 49.4861C207.042 50.5927 208.453 51.3244 209.984 51.5753L209.227 56.1168C206.727 55.7058 204.424 54.5102 202.65 52.703C200.875 50.8958 199.722 48.5708 199.357 46.0645L199.195 44.9384C199.152 44.6386 199.169 44.3333 199.245 44.0401C199.32 43.7469 199.453 43.4714 199.635 43.2296C199.818 42.9878 200.046 42.7843 200.307 42.6308C200.568 42.4774 200.857 42.3769 201.157 42.3353ZM229.567 44.6153C229.567 45.2273 229.81 45.8143 230.243 46.2471C230.675 46.6799 231.262 46.923 231.874 46.923H236.513C237.125 46.923 237.712 46.6799 238.145 46.2471C238.577 45.8143 238.82 45.2273 238.82 44.6153C238.82 44.0033 238.577 43.4163 238.145 42.9835C237.712 42.5507 237.125 42.3076 236.513 42.3076H231.874C231.262 42.3076 230.675 42.5507 230.243 42.9835C229.81 43.4163 229.567 44.0033 229.567 44.6153Z" fill="#362462"/>
<path fill-rule="evenodd" clip-rule="evenodd" d="M236.843 42.336C236.237 42.2489 235.62 42.406 235.129 42.7729C234.638 43.1398 234.313 43.6864 234.224 44.2929L234.063 45.4214C233.837 46.9557 233.13 48.3786 232.043 49.4849C230.957 50.5911 229.546 51.3234 228.016 51.576L228.773 56.1175C231.272 55.7065 233.576 54.5109 235.35 52.7037C237.125 50.8965 238.278 48.5715 238.643 46.0652L238.805 44.9391C238.847 44.6393 238.831 44.334 238.755 44.0408C238.679 43.7476 238.547 43.4721 238.364 43.2303C238.182 42.9885 237.954 42.785 237.693 42.6315C237.432 42.478 237.143 42.3776 236.843 42.336Z" fill="#362462"/>
<path fill-rule="evenodd" clip-rule="evenodd" d="M219 80.3846C233.019 80.3846 244.385 69.0192 244.385 55C244.385 40.9808 233.019 29.6154 219 29.6154C204.981 29.6154 193.615 40.9808 193.615 55C193.615 69.0192 204.981 80.3846 219 80.3846ZM219 85C235.569 85 249 71.5692 249 55C249 38.4308 235.569 25 219 25C202.431 25 189 38.4308 189 55C189 71.5692 202.431 85 219 85Z" fill="#362462"/>
</svg>
