<svg width="274" height="110" viewBox="0 0 274 110" fill="none" xmlns="http://www.w3.org/2000/svg">
<rect x="272.5" y="1.5" width="107" height="271" rx="53.5" transform="rotate(90 272.5 1.5)" fill="#F3F3FF" stroke="#5A7AF6" stroke-width="3"/>
<path d="M47.9672 68V62.08L55.6872 55.84C56.1672 55.44 56.7272 54.9867 57.3672 54.48C58.0072 53.9733 58.6205 53.4267 59.2072 52.84C59.8205 52.2267 60.3272 51.6133 60.7272 51C61.1272 50.36 61.3272 49.72 61.3272 49.08C61.3272 48.28 61.0739 47.6 60.5672 47.04C60.0605 46.4533 59.2339 46.16 58.0872 46.16C56.8605 46.16 55.9672 46.4533 55.4072 47.04C54.8739 47.6 54.5672 48.2667 54.4872 49.04H47.7672C47.8472 46.8267 48.3805 45.0133 49.3672 43.6C50.3805 42.16 51.6739 41.0933 53.2472 40.4C54.8472 39.68 56.5405 39.32 58.3272 39.32C60.1405 39.32 61.8072 39.6667 63.3272 40.36C64.8739 41.0267 66.1139 42.0267 67.0472 43.36C67.9805 44.6667 68.4472 46.28 68.4472 48.2C68.4472 49.6933 68.1539 51.0933 67.5672 52.4C67.0072 53.68 66.2072 54.8933 65.1672 56.04C64.1272 57.16 62.9272 58.24 61.5672 59.28L58.8472 61.32H68.1672V68H47.9672Z" fill="#181E58"/>
<circle cx="219" cy="55" r="53.5" fill="#5A7AF6" stroke="#5A7AF6" stroke-width="3"/>
<path d="M207.817 55.0004C207.795 53.5181 208.068 52.0462 208.62 50.6703C209.172 49.2944 209.992 48.0421 211.033 46.986C212.073 45.93 213.313 45.0914 214.681 44.519C216.048 43.9466 217.516 43.6519 218.999 43.6519C220.481 43.6519 221.949 43.9466 223.316 44.519C224.684 45.0914 225.924 45.93 226.964 46.986C228.005 48.0421 228.825 49.2944 229.377 50.6703C229.929 52.0462 230.202 53.5181 230.18 55.0004C230.119 57.9251 228.914 60.7093 226.824 62.7561C224.734 64.8028 221.925 65.9491 219 65.9491C216.074 65.9491 213.266 64.8028 211.176 62.7561C209.086 60.7093 207.881 57.9251 207.819 55.0004M219 49.8213C217.626 49.8213 216.308 50.3673 215.336 51.339C214.364 52.3107 213.818 53.6287 213.818 55.0029C213.818 56.3771 214.364 57.6951 215.336 58.6668C216.308 59.6385 217.626 60.1844 219 60.1844C220.374 60.1844 221.692 59.6385 222.664 58.6668C223.635 57.6951 224.181 56.3771 224.181 55.0029C224.181 53.6287 223.635 52.3107 222.664 51.339C221.692 50.3673 220.374 49.8213 219 49.8213Z" fill="#362462"/>
<path d="M219 82C204.089 82 192 69.9114 192 55C192 40.0886 204.089 28 219 28C233.911 28 246 40.0886 246 55C246 69.9114 233.911 82 219 82ZM221.455 39.0945V36.1835H216.545V39.0945C213.165 39.6174 210.04 41.203 207.621 43.6214C205.203 46.0398 203.617 49.1655 203.095 52.5455H200.181V57.4545H203.095C203.617 60.8345 205.203 63.9602 207.621 66.3786C210.04 68.797 213.165 70.3826 216.545 70.9055V73.819H221.455V70.9055C224.835 70.3826 227.96 68.797 230.379 66.3786C232.797 63.9602 234.383 60.8345 234.905 57.4545H237.817V52.5455H234.905C234.383 49.1655 232.797 46.0398 230.379 43.6214C227.96 41.203 224.835 39.6174 221.455 39.0945Z" fill="#362462"/>
</svg>
