<svg width="48" height="48" viewBox="0 0 48 48" fill="none" xmlns="http://www.w3.org/2000/svg">
<path d="M14.0594 24.0002C14.0399 22.6826 14.2826 21.3742 14.7733 20.1512C15.264 18.9282 15.9931 17.815 16.9179 16.8763C17.8428 15.9376 18.9451 15.1922 20.1607 14.6834C21.3763 14.1746 22.6809 13.9126 23.9987 13.9126C25.3165 13.9126 26.6211 14.1746 27.8367 14.6834C29.0523 15.1922 30.1546 15.9376 31.0795 16.8763C32.0044 17.815 32.7334 18.9282 33.2241 20.1512C33.7148 21.3742 33.9575 22.6826 33.938 24.0002C33.8835 26.5999 32.8125 29.0748 30.9547 30.8941C29.0968 32.7134 26.6001 33.7323 23.9998 33.7323C21.3995 33.7323 18.9028 32.7134 17.0449 30.8941C15.1871 29.0748 14.1161 26.5999 14.0616 24.0002M23.9998 19.3966C22.7783 19.3966 21.6068 19.8818 20.743 20.7456C19.8792 21.6094 19.394 22.7809 19.394 24.0024C19.394 25.2239 19.8792 26.3955 20.743 27.2592C21.6068 28.123 22.7783 28.6082 23.9998 28.6082C25.2213 28.6082 26.3929 28.123 27.2566 27.2592C28.1204 26.3955 28.6056 25.2239 28.6056 24.0024C28.6056 22.7809 28.1204 21.6094 27.2566 20.7456C26.3929 19.8818 25.2213 19.3966 23.9998 19.3966Z" fill="#362462"/>
<path d="M24 48C10.7455 48 0 37.2545 0 24C0 10.7455 10.7455 0 24 0C37.2545 0 48 10.7455 48 24C48 37.2545 37.2545 48 24 48ZM26.1818 9.86182V7.27418H21.8182V9.86182C18.8138 10.3266 16.0354 11.736 13.8857 13.8857C11.736 16.0354 10.3266 18.8138 9.86182 21.8182H7.272V26.1818H9.86182C10.3266 29.1862 11.736 31.9646 13.8857 34.1143C16.0354 36.264 18.8138 37.6734 21.8182 38.1382V40.728H26.1818V38.1382C29.1862 37.6734 31.9646 36.264 34.1143 34.1143C36.264 31.9646 37.6734 29.1862 38.1382 26.1818H40.7258V21.8182H38.1382C37.6734 18.8138 36.264 16.0354 34.1143 13.8857C31.9646 11.736 29.1862 10.3266 26.1818 9.86182Z" fill="#362462"/>
</svg>
