<svg width="50" height="50" viewBox="0 0 50 50" fill="none" xmlns="http://www.w3.org/2000/svg">
<path d="M32.0548 24.8036C32.3762 24.9464 32.7155 25 33.0369 25C33.769 25 34.4832 24.6964 35.001 24.1429L39.1793 19.6429H44.6432C47.5895 19.6429 50 17.2321 50 14.2857V5.35714C50 2.41071 47.5895 0 44.6432 0H30.3585C27.4123 0 25.0017 2.41071 25.0017 5.35714V14.2679C25.0017 17.2143 27.4123 19.625 30.3585 19.625V22.3036C30.3585 23.4286 31.0192 24.3929 32.0548 24.8036ZM15.181 28.5714C10.2528 28.5714 6.25305 24.5714 6.25305 19.6429C6.25305 14.7143 10.2528 10.7143 15.181 10.7143C20.1092 10.7143 24.1089 14.7143 24.1089 19.6429C24.1089 24.5714 20.1092 28.5714 15.181 28.5714ZM15.181 49.9821C10.0028 49.9821 6.03878 48.5536 3.36039 45.7536C-0.0875823 42.1554 -0.00723113 37.5661 0.00169682 37.1143V37.0839C0.00348241 34.3929 2.25333 32.1429 5.03885 32.1429H25.3231C28.0908 32.1429 30.3585 34.3911 30.3585 37.1732V37.1911C30.3657 37.5161 30.4656 42.1375 27.0016 45.7714C24.3232 48.5732 20.3592 50 15.181 50V49.9821Z" fill="#362462"/>
</svg>
