<svg width="871" height="72" viewBox="0 0 871 72" fill="none" xmlns="http://www.w3.org/2000/svg">
<path d="M97.3594 72H81.75L48.7969 16.5938L23.6719 58.6875H46.4062L54.3281 72H0C18.6875 40.7188 33.0469 16.7188 43.0781 0H54.4219L97.3594 72ZM187.594 72H123.609L115.688 58.6875H174.094V42.75H136.594V29.4375H187.594V72ZM105.75 29.8594V42.75H92.4844V30.3281C92.4844 27.7031 92.8125 25.125 93.4688 22.5938C94.125 20.0625 95.0781 17.6562 96.3281 15.375C97.6094 13.125 99.1406 11.0625 100.922 9.1875C102.734 7.3125 104.75 5.67188 106.969 4.26562C109.219 2.85938 111.656 1.79687 114.281 1.07812C116.906 0.359375 119.641 0 122.484 0H176.953L177.656 1.17188L182.719 9.65625L184.875 13.2656H122.766C121.172 13.2656 119.703 13.4375 118.359 13.7812C117.016 14.125 115.672 14.6875 114.328 15.4688C112.984 16.2188 111.812 17.0781 110.812 18.0469C109.812 18.9844 108.906 20.1094 108.094 21.4219C107.281 22.7344 106.688 24.0625 106.312 25.4062C105.938 26.7188 105.75 28.2031 105.75 29.8594ZM294.516 72H278.906L245.953 16.5938L220.828 58.6875H243.562L251.484 72H197.156C215.844 40.7188 230.203 16.7188 240.234 0H251.578L294.516 72ZM359.438 72H343.781L326.719 50.8125H302.438L296.297 37.5938H338.016C341.172 37.5938 343.781 37 345.844 35.8125C347.938 34.625 349.484 33.0938 350.484 31.2188C351.516 29.3125 352.031 27.3906 352.031 25.4531C352.031 23.4531 351.516 21.5312 350.484 19.6875C349.484 17.8125 347.938 16.2812 345.844 15.0938C343.781 13.9062 341.172 13.3125 338.016 13.3125H278.812L272.719 0H339.422C347.328 0 353.656 2.65625 358.406 7.96875C362.594 12.8438 364.688 18.6562 364.688 25.4062C364.688 28.5625 364.172 31.6406 363.141 34.6406C361.453 39.4219 358.672 43.25 354.797 46.125C351.203 48.75 347.016 50.2812 342.234 50.7188L359.438 72ZM425.719 72C422.25 72 418.922 71.8125 415.734 71.4375C409.266 70.625 403.875 69.0156 399.562 66.6094C394.312 63.6719 390.062 59.6562 386.812 54.5625C383.656 49.7188 381.828 44.1406 381.328 37.8281V0H394.406C394.406 8.78125 394.375 17.5625 394.312 26.3438C394.312 30.4375 394.328 33.4375 394.359 35.3438V38.2031C394.484 38.3906 394.562 38.5938 394.594 38.8125C395.406 44.3125 397.922 48.8594 402.141 52.4531C402.328 52.5469 402.469 52.6875 402.562 52.875C404.25 54.125 406.266 55.1875 408.609 56.0625H408.656C413.25 57.7812 418.938 58.6406 425.719 58.6406C428.625 58.6406 431.594 58.4062 434.625 57.9375H434.672C441.109 57.0938 445.938 55.3438 449.156 52.6875V52.6406C451.281 50.9219 452.953 48.9688 454.172 46.7812C455.422 44.5625 456.312 41.9375 456.844 38.9062L456.891 37.9688C456.984 37 457.031 33.3594 457.031 27.0469V0H470.109V37.875C469.922 40.875 469.375 43.7812 468.469 46.5938C466.562 52.375 463.422 57.3125 459.047 61.4062C454.828 65.375 450.047 68.0781 444.703 69.5156C439.141 71.1719 432.812 72 425.719 72ZM573.422 72H518.062C512.688 72 508.25 71.0312 504.75 69.0938C500.938 67 497.781 64.2812 495.281 60.9375C490.062 53.9062 487.453 45.5625 487.453 35.9062C487.453 26.1562 490.047 17.7969 495.234 10.8281C497.922 7.26562 501.188 4.57813 505.031 2.76562C508.875 0.921875 513.172 0 517.922 0H562.828L570.75 13.2656H518.297C515.922 13.2656 513.844 13.625 512.062 14.3438C510.281 15.0625 508.594 16.2188 507 17.8125C502.469 22.3438 500.203 28.5625 500.203 36.4688C500.203 41.5312 501.375 46.0938 503.719 50.1562C505.188 52.7188 507.156 54.7812 509.625 56.3438C512.094 57.9062 515 58.6875 518.344 58.6875H573.422V72ZM642.562 72H608.109L600.188 58.7344H642.562C646.531 58.7344 649.797 57.6875 652.359 55.5938C655.078 53.375 657.078 50.5625 658.359 47.1562C659.766 43.5938 660.469 39.8594 660.469 35.9531C660.469 32.1094 659.766 28.4062 658.359 24.8438C657.078 21.4375 655.078 18.625 652.359 16.4062C649.797 14.3125 646.531 13.2656 642.562 13.2656H607.781C605.281 13.2656 603.062 13.6719 601.125 14.4844C599.188 15.2969 597.328 16.5938 595.547 18.375C593.797 20.125 592.516 21.9688 591.703 23.9062C590.891 25.8438 590.484 28.0625 590.484 30.5625V42.1406H577.219V30.5625C577.219 24.9375 578.594 19.8125 581.344 15.1875C584.094 10.5625 587.781 6.875 592.406 4.125C597.031 1.375 602.156 0 607.781 0H642.562C647.438 0 651.859 0.96875 655.828 2.90625C659.797 4.84375 663.172 7.67188 665.953 11.3906C671.047 18.2344 673.594 26.4219 673.594 35.9531C673.594 45.4844 671.047 53.6719 665.953 60.5156C663.172 64.2656 659.797 67.125 655.828 69.0938C651.859 71.0312 647.438 72 642.562 72ZM762.656 72H747L729.938 50.8125H705.656L699.516 37.5938H741.234C744.391 37.5938 747 37 749.062 35.8125C751.156 34.625 752.703 33.0938 753.703 31.2188C754.734 29.3125 755.25 27.3906 755.25 25.4531C755.25 23.4531 754.734 21.5312 753.703 19.6875C752.703 17.8125 751.156 16.2812 749.062 15.0938C747 13.9062 744.391 13.3125 741.234 13.3125H682.031L675.938 0H742.641C750.547 0 756.875 2.65625 761.625 7.96875C765.812 12.8438 767.906 18.6562 767.906 25.4062C767.906 28.5625 767.391 31.6406 766.359 34.6406C764.672 39.4219 761.891 43.25 758.016 46.125C754.422 48.75 750.234 50.2812 745.453 50.7188L762.656 72ZM797.484 72H783.984V36.5156H845.719C848.25 36.5156 850.359 35.9688 852.047 34.875C853.734 33.75 855 32.3281 855.844 30.6094C856.688 28.8594 857.109 26.9844 857.109 24.9844C857.109 23.0781 856.688 21.25 855.844 19.5C855 17.7188 853.734 16.2812 852.047 15.1875C850.359 14.0625 848.25 13.5 845.719 13.5H782.766L774.609 0H845.719C851.188 0 855.719 1.20313 859.312 3.60938C862.938 6.01562 865.656 9.10937 867.469 12.8906C869.281 16.6406 870.188 20.5469 870.188 24.6094C870.188 28.6406 869.281 32.5469 867.469 36.3281C865.656 40.0781 862.938 43.1562 859.312 45.5625C855.719 47.9688 851.188 49.1719 845.719 49.1719H797.484V72Z" fill="white"/>
</svg>
