<svg width="195" height="190" viewBox="0 0 195 190" fill="none" xmlns="http://www.w3.org/2000/svg">
<path d="M34.4047 0H159.747C178.692 0 194.152 15.3078 194.152 34.4047V154.897C194.152 173.842 178.844 189.302 159.747 189.302H34.4047C15.3078 189.15 0 173.842 0 154.745V34.4047C0 15.3078 15.3078 0 34.4047 0Z" fill="#8C8C8C"/>
<path d="M93.8173 113.217H63.6564L57.5939 132.163C57.4423 132.92 56.8361 133.375 56.0783 133.224H40.922C40.0126 133.224 39.8611 132.769 40.0126 131.708L66.0814 56.836C66.3845 56.0782 66.5361 55.1688 66.8392 54.1079C67.1423 52.4407 67.2939 50.622 67.2939 48.8032C67.1423 48.3485 67.597 48.0454 67.9001 47.8939H88.8158C89.422 47.8939 89.7251 48.197 89.8767 48.5001L119.431 131.708C119.735 132.617 119.431 133.072 118.674 133.072H101.699C101.092 133.224 100.638 132.769 100.335 132.163L93.8173 113.217ZM68.3548 96.697H88.8158C88.3611 95.0298 87.7548 92.9079 86.997 90.9376C86.2392 88.8157 85.4814 86.3907 84.8751 83.9657C84.1173 81.3892 83.3595 78.9642 82.6017 76.5392C81.8439 73.9626 81.0861 71.6892 80.4798 69.4157C79.8736 67.1423 79.2673 65.0204 78.6611 63.0501H78.5095C77.7517 66.536 76.8423 70.022 75.7814 73.5079C74.5689 77.4485 73.3564 81.3892 71.9923 85.4814C70.7798 89.5735 69.5673 93.3626 68.3548 96.697ZM137.467 62.2923C134.739 62.4439 132.163 61.3829 130.344 59.4126C128.525 57.4423 127.464 54.7142 127.616 51.986C127.464 49.2579 128.525 46.6814 130.495 44.8626C132.466 43.0438 135.042 41.9829 137.619 41.9829C140.802 41.9829 143.227 42.8923 145.045 44.8626C146.864 46.8329 147.774 49.4095 147.774 51.986C147.925 54.7142 146.864 57.4423 144.894 59.4126C142.924 61.3829 140.195 62.4439 137.467 62.2923ZM128.374 132.466V70.1735C128.374 69.4157 128.677 69.1126 129.435 69.1126H145.5C146.258 69.1126 146.561 69.5673 146.561 70.1735V132.466C146.561 133.375 146.258 133.83 145.5 133.83H129.586C128.828 133.678 128.374 133.224 128.374 132.466Z" fill="#AFAFAF"/>
</svg>
