<svg width="73" height="82" viewBox="0 0 73 82" fill="none" xmlns="http://www.w3.org/2000/svg">
<path d="M49.2771 9.53963C49.2771 9.53963 48.3687 9.81213 46.8246 10.3117C46.5521 9.49421 46.1887 8.44963 45.6437 7.45046C43.9179 4.13504 41.3746 2.40921 38.2862 2.36379C38.0592 2.36379 37.8775 2.36379 37.6504 2.40921C37.5596 2.31838 37.4687 2.18213 37.3779 2.09129C36.0608 0.637961 34.335 -0.0432891 32.2912 0.00212752C28.34 0.138378 24.3887 2.99963 21.1642 8.0863C18.8933 11.6742 17.2129 16.1705 16.7133 19.6221C12.1717 21.03 8.9925 22.0292 8.90167 22.0292C6.58542 22.7559 6.54 22.8467 6.22208 24.9813C5.995 26.6163 0 73.123 0 73.123L49.8675 81.7521V9.44879C49.6404 9.44879 49.4133 9.49421 49.2771 9.53963ZM37.7412 13.1275C35.1071 13.945 32.2004 14.8534 29.3392 15.7163C30.1567 12.5825 31.7008 9.49421 33.6083 7.45046C34.335 6.67838 35.2887 5.86088 36.4696 5.36129C37.5596 7.67754 37.7867 10.9021 37.7412 13.1275ZM32.3367 2.63629C33.245 2.63629 34.0625 2.81796 34.7437 3.27213C33.6537 3.81713 32.6546 4.63463 31.6554 5.67921C29.1575 8.35879 27.2046 12.5825 26.4325 16.6246C24.0254 17.3513 21.7092 18.078 19.5292 18.7592C20.8917 12.3555 26.2508 2.81796 32.3367 2.63629ZM24.6158 38.9242C24.8883 43.148 36.0608 44.1017 36.6967 54.048C37.1962 61.8596 32.5637 67.2188 25.8421 67.6275C17.8487 68.1271 13.3979 63.4038 13.3979 63.4038L15.0783 56.1825C15.0783 56.1825 19.5292 59.5434 23.0717 59.3163C25.3879 59.18 26.2054 57.2725 26.16 55.9555C25.7967 50.4146 16.7133 50.7325 16.1683 41.6492C15.6687 33.9738 20.71 26.253 31.7917 25.5263C36.1062 25.2538 38.2862 26.3438 38.2862 26.3438L35.7429 35.8359C35.7429 35.8359 32.9271 34.5642 29.5663 34.7459C24.6612 35.0638 24.5704 38.1521 24.6158 38.9242ZM40.3754 12.31C40.33 10.3117 40.1029 7.49588 39.1492 5.08879C42.1467 5.67921 43.6454 9.04004 44.2812 11.0838C43.1458 11.4471 41.8287 11.8559 40.3754 12.31ZM51.5025 81.5705L72.2125 76.4384C72.2125 76.4384 63.3108 16.2159 63.2654 15.8071C63.22 15.3984 62.8567 15.1713 62.5387 15.1259C62.2208 15.0805 56.4075 14.9896 56.4075 14.9896C56.4075 14.9896 52.865 11.538 51.5025 10.2209V81.5705Z" fill="#8C8C8C"/>
</svg>
